<svg width="20" height="21" viewBox="0 0 20 21" fill="none" xmlns="http://www.w3.org/2000/svg">
<rect x="0.5" y="0.75" width="19" height="19" rx="9.5" fill="white"/>
<path fill-rule="evenodd" clip-rule="evenodd" d="M5.375 7.68198L5.375 8.74893C5.37638 8.75595 5.38756 8.79211 5.46058 8.85489C5.55299 8.93434 5.70865 9.02288 5.93361 9.10468C6.38044 9.26717 7.02258 9.375 7.75 9.375C8.37783 9.375 8.94425 9.29463 9.3766 9.1669C9.40706 9.13464 9.43899 9.10446 9.47164 9.0764C9.49124 9.05954 9.51153 9.04305 9.53246 9.02692C9.53664 9.0237 9.54082 9.0205 9.54501 9.01734C9.56977 8.99865 9.59544 8.98041 9.62198 8.96261C9.65236 8.94224 9.6838 8.92249 9.71619 8.90337C9.79799 8.85507 9.88585 8.81074 9.97814 8.77013C10.0198 8.75181 10.0623 8.73424 10.1056 8.71742C10.1121 8.71492 10.1185 8.71242 10.125 8.70995V7.68198C10.0294 7.72883 9.92797 7.77125 9.8227 7.80953C9.27422 8.00897 8.54136 8.125 7.75 8.125C6.95864 8.125 6.22578 8.00897 5.6773 7.80953C5.57203 7.77125 5.47059 7.72883 5.375 7.68198ZM10.875 6.75V8.50113C11.2908 8.41964 11.7591 8.375 12.25 8.375C13.0414 8.375 13.7742 8.49103 14.3227 8.69047C14.5954 8.78963 14.8425 8.91657 15.0284 9.0764C15.213 9.23518 15.375 9.46152 15.375 9.75V13.75C15.375 14.0385 15.213 14.2648 15.0284 14.4236C14.8425 14.5834 14.5954 14.7104 14.3227 14.8095C13.7742 15.009 13.0414 15.125 12.25 15.125C11.4586 15.125 10.7258 15.009 10.1773 14.8095C9.90461 14.7104 9.65754 14.5834 9.47164 14.4236C9.34194 14.3121 9.22345 14.1673 9.16439 13.991C8.73983 14.0773 8.25756 14.125 7.75 14.125C6.95864 14.125 6.22578 14.009 5.6773 13.8095C5.40461 13.7104 5.15754 13.5834 4.97164 13.4236C4.78695 13.2648 4.625 13.0385 4.625 12.75V6.75C4.625 6.46152 4.78695 6.23518 4.97164 6.0764C5.15754 5.91657 5.40461 5.78963 5.6773 5.69047C6.22578 5.49103 6.95864 5.375 7.75 5.375C8.54136 5.375 9.27422 5.49103 9.8227 5.69047C10.0954 5.78963 10.3425 5.91657 10.5284 6.0764C10.713 6.23518 10.875 6.46152 10.875 6.75ZM5.375 9.68198L5.375 10.7489C5.37638 10.7559 5.38756 10.7921 5.46058 10.8549C5.55299 10.9343 5.70865 11.0229 5.93361 11.1047C6.38044 11.2672 7.02258 11.375 7.75 11.375C8.26241 11.375 8.73391 11.3215 9.125 11.2323V9.99887C8.7101 10.0802 8.24192 10.125 7.75 10.125C6.95864 10.125 6.22578 10.009 5.6773 9.80953C5.57203 9.77125 5.47059 9.72883 5.375 9.68198ZM9.875 10.682V11.513C9.87513 11.5187 9.87513 11.5244 9.875 11.5301L9.875 11.7489C9.87638 11.7559 9.88756 11.7921 9.96058 11.8549C10.053 11.9343 10.2087 12.0229 10.4336 12.1047C10.8804 12.2672 11.5226 12.375 12.25 12.375C12.9774 12.375 13.6196 12.2672 14.0664 12.1047C14.2913 12.0229 14.447 11.9343 14.5394 11.8549C14.6124 11.7921 14.6236 11.756 14.625 11.7489V10.682C14.5294 10.7288 14.428 10.7712 14.3227 10.8095C13.7742 11.009 13.0414 11.125 12.25 11.125C11.4586 11.125 10.7258 11.009 10.1773 10.8095C10.072 10.7712 9.97059 10.7288 9.875 10.682ZM14.625 9.74876C14.6251 9.74803 14.6251 9.74766 14.6252 9.74766L14.625 9.74876ZM14.6248 9.75C14.6225 9.75912 14.6093 9.79482 14.5394 9.85489C14.447 9.93434 14.2913 10.0229 14.0664 10.1047C13.6196 10.2672 12.9774 10.375 12.25 10.375C11.5226 10.375 10.8804 10.2672 10.4336 10.1047C10.2087 10.0229 10.053 9.93434 9.96058 9.85489C9.89133 9.79535 9.8777 9.75975 9.8753 9.75025C9.87652 9.74539 9.88102 9.73212 9.8965 9.71119C9.90917 9.69423 9.92914 9.67214 9.96058 9.64511C9.96971 9.63726 9.97945 9.62933 9.98982 9.62132C9.99214 9.61953 9.99451 9.61772 9.99693 9.6159C10.0158 9.60167 10.0364 9.58734 10.0588 9.57297C10.1507 9.5141 10.2749 9.45303 10.4336 9.39532C10.486 9.37627 10.541 9.35798 10.5986 9.34053C10.6017 9.33959 10.6048 9.33866 10.6079 9.33773M14.6248 9.75C14.6225 9.74087 14.6093 9.70518 14.5394 9.64511C14.447 9.56566 14.2913 9.47712 14.0664 9.39532C13.6196 9.23283 12.9774 9.125 12.25 9.125C11.6131 9.125 11.0416 9.20767 10.6093 9.33731M14.625 12.682C14.5294 12.7288 14.428 12.7712 14.3227 12.8095C13.7742 13.009 13.0414 13.125 12.25 13.125C11.4586 13.125 10.7258 13.009 10.1773 12.8095C10.072 12.7712 9.97059 12.7288 9.875 12.682V13.7489C9.87638 13.7559 9.88755 13.7921 9.96058 13.8549C10.053 13.9343 10.2087 14.0229 10.4336 14.1047C10.8804 14.2672 11.5226 14.375 12.25 14.375C12.9774 14.375 13.6196 14.2672 14.0664 14.1047C14.2913 14.0229 14.447 13.9343 14.5394 13.8549C14.6124 13.7921 14.6236 13.7559 14.625 13.7489V12.682ZM14.6252 13.7477C14.6252 13.7477 14.6251 13.7482 14.625 13.7489L14.6252 13.7477ZM9.87484 13.7477C9.87486 13.7477 9.87496 13.7482 9.875 13.7489L9.87484 13.7477ZM9.125 11.9989V13.2323C8.73391 13.3215 8.26241 13.375 7.75 13.375C7.02258 13.375 6.38044 13.2672 5.93361 13.1047C5.70865 13.0229 5.55299 12.9343 5.46058 12.8549C5.38756 12.7921 5.37638 12.7559 5.375 12.7489V11.682C5.47059 11.7288 5.57203 11.7712 5.6773 11.8095C6.22578 12.009 6.95864 12.125 7.75 12.125C8.24192 12.125 8.7101 12.0802 9.125 11.9989ZM5.37484 12.7477C5.37486 12.7477 5.37496 12.7482 5.375 12.7489L5.37484 12.7477ZM10.1252 6.74766C10.1252 6.74766 10.1252 6.74803 10.125 6.74876L10.1252 6.74766ZM10.1248 6.75C10.1225 6.75912 10.1093 6.79482 10.0394 6.85489C9.94701 6.93434 9.79135 7.02288 9.56639 7.10468C9.11956 7.26717 8.47742 7.375 7.75 7.375C7.02258 7.375 6.38044 7.26717 5.93361 7.10468C5.70865 7.02288 5.55299 6.93434 5.46058 6.85489C5.39072 6.79482 5.37746 6.75912 5.37524 6.75C5.37746 6.74088 5.39072 6.70518 5.46058 6.64511C5.55299 6.56566 5.70865 6.47712 5.93361 6.39532C6.38044 6.23283 7.02258 6.125 7.75 6.125C8.47742 6.125 9.11956 6.23283 9.56639 6.39532C9.79135 6.47712 9.94701 6.56566 10.0394 6.64511C10.1093 6.70518 10.1225 6.74088 10.1248 6.75ZM5.37484 6.74766C5.37486 6.74766 5.37493 6.74803 5.37497 6.74876L5.37484 6.74766Z" fill="#242424"/>
<rect x="0.5" y="0.75" width="19" height="19" rx="9.5" stroke="#242424"/>
</svg>
