<svg width="25" height="24" viewBox="0 0 25 24" fill="none" xmlns="http://www.w3.org/2000/svg">
<path fill-rule="evenodd" clip-rule="evenodd" d="M8.1012 2.25H16.5654C17.3782 2.24999 18.0339 2.24999 18.5648 2.29336C19.1114 2.33803 19.5915 2.43239 20.0358 2.65873C20.7414 3.01825 21.3151 3.59193 21.6746 4.29754C21.9009 4.74175 21.9953 5.2219 22.0399 5.76853C22.0833 6.29944 22.0833 6.95505 22.0833 7.76788V13.2321C22.0833 14.045 22.0833 14.7006 22.0399 15.2315C21.9953 15.7781 21.9009 16.2582 21.6746 16.7025C21.3151 17.4081 20.7414 17.9817 20.0358 18.3413C19.5915 18.5676 19.1114 18.662 18.5648 18.7066C18.0339 18.75 17.3783 18.75 16.5654 18.75H14.0171C13.363 18.75 13.1399 18.7535 12.9333 18.7959C12.7347 18.8367 12.5425 18.9041 12.362 18.9963C12.1742 19.0923 11.9978 19.2289 11.487 19.6375L9.07844 21.5644C8.89051 21.7147 8.71149 21.858 8.5567 21.9603C8.40715 22.0592 8.15427 22.2093 7.83465 22.2097C7.45397 22.2101 7.09386 22.037 6.85637 21.7395C6.65698 21.4897 6.61625 21.1984 6.60003 21.0199C6.58324 20.8351 6.58327 20.6058 6.5833 20.3652L6.5833 18.7474C6.09099 18.7402 5.70637 18.7143 5.36273 18.6222C4.06863 18.2755 3.05783 17.2647 2.71108 15.9706C2.58282 15.4919 2.58301 14.9338 2.58328 14.1158C2.58329 14.0778 2.5833 14.0392 2.5833 14L2.5833 7.7679C2.58329 6.95506 2.58329 6.29944 2.62666 5.76853C2.67133 5.2219 2.76569 4.74175 2.99203 4.29754C3.35155 3.59193 3.92523 3.01825 4.63084 2.65873C5.07506 2.43239 5.5552 2.33803 6.10183 2.29336C6.63274 2.24999 7.28836 2.24999 8.1012 2.25ZM6.22398 3.78838C5.77011 3.82547 5.50934 3.8946 5.31182 3.99524C4.88846 4.21095 4.54425 4.55516 4.32854 4.97852C4.2279 5.17604 4.15877 5.4368 4.12168 5.89068C4.08388 6.35331 4.0833 6.94755 4.0833 7.8V14C4.0833 14.9783 4.08974 15.3203 4.15997 15.5823C4.36802 16.3588 4.9745 16.9653 5.75096 17.1733C6.01304 17.2436 6.35504 17.25 7.3333 17.25C7.74752 17.25 8.0833 17.5858 8.0833 18V20.3355C8.0833 20.3722 8.08331 20.4067 8.08336 20.4394C8.10889 20.419 8.13591 20.3974 8.16454 20.3745L10.55 18.4662C10.5691 18.4509 10.5879 18.4359 10.6064 18.421C11.0395 18.0744 11.3393 17.8344 11.6796 17.6606C11.9805 17.5068 12.3008 17.3945 12.6317 17.3266C13.006 17.2498 13.3901 17.2499 13.9448 17.25C13.9685 17.25 13.9926 17.25 14.0171 17.25H16.5333C17.3858 17.25 17.98 17.2494 18.4426 17.2116C18.8965 17.1745 19.1573 17.1054 19.3548 17.0048C19.7781 16.789 20.1224 16.4448 20.3381 16.0215C20.4387 15.824 20.5078 15.5632 20.5449 15.1093C20.5827 14.6467 20.5833 14.0525 20.5833 13.2V7.8C20.5833 6.94755 20.5827 6.35331 20.5449 5.89068C20.5078 5.4368 20.4387 5.17604 20.3381 4.97852C20.1224 4.55516 19.7781 4.21095 19.3548 3.99524C19.1573 3.8946 18.8965 3.82547 18.4426 3.78838C17.98 3.75058 17.3858 3.75 16.5333 3.75H8.1333C7.28085 3.75 6.68661 3.75058 6.22398 3.78838ZM6.5833 8.5C6.5833 8.08579 6.91909 7.75 7.3333 7.75H12.3333C12.7475 7.75 13.0833 8.08579 13.0833 8.5C13.0833 8.91421 12.7475 9.25 12.3333 9.25H7.3333C6.91909 9.25 6.5833 8.91421 6.5833 8.5ZM6.5833 12C6.5833 11.5858 6.91909 11.25 7.3333 11.25H15.3333C15.7475 11.25 16.0833 11.5858 16.0833 12C16.0833 12.4142 15.7475 12.75 15.3333 12.75H7.3333C6.91909 12.75 6.5833 12.4142 6.5833 12Z" fill="#242424"/>
</svg>
