<svg width="20" height="21" viewBox="0 0 20 21" fill="none" xmlns="http://www.w3.org/2000/svg">
<rect x="0.5" y="0.75" width="19" height="19" rx="9.5" fill="white"/>
<path fill-rule="evenodd" clip-rule="evenodd" d="M10 6.125C8.96447 6.125 8.125 6.96447 8.125 8C8.125 9.03553 8.96447 9.875 10 9.875C11.0355 9.875 11.875 9.03553 11.875 8C11.875 6.96447 11.0355 6.125 10 6.125ZM7.375 8C7.375 6.55025 8.55025 5.375 10 5.375C11.4497 5.375 12.625 6.55025 12.625 8C12.625 9.44975 11.4497 10.625 10 10.625C8.55025 10.625 7.375 9.44975 7.375 8ZM10 12.625C8.36668 12.625 6.87697 13.3362 5.77285 14.5073C5.63077 14.6579 5.39344 14.6649 5.24275 14.5229C5.09206 14.3808 5.08508 14.1434 5.22715 13.9927C6.45882 12.6864 8.14034 11.875 10 11.875C11.8597 11.875 13.5412 12.6864 14.7729 13.9927C14.9149 14.1434 14.9079 14.3808 14.7573 14.5229C14.6066 14.6649 14.3692 14.6579 14.2272 14.5073C13.123 13.3362 11.6333 12.625 10 12.625Z" fill="black"/>
<rect x="0.5" y="0.75" width="19" height="19" rx="9.5" stroke="#242424"/>
</svg>
